<svg width="277" height="44" viewBox="0 0 277 44" fill="none" xmlns="http://www.w3.org/2000/svg">
<g filter="url(#filter0_di_70_676)">
<path d="M37.1227 35H31.7467L31.3147 31.112C30.4507 32.424 29.1547 33.528 27.4267 34.424C25.7307 35.288 23.6827 35.72 21.2827 35.72C16.5467 35.72 12.5307 34.104 9.23475 30.872C5.93875 27.64 4.29075 23.352 4.29075 18.008C4.29075 12.696 5.98675 8.408 9.37875 5.144C12.8027 1.88 16.9147 0.247998 21.7147 0.247998C25.8747 0.247998 29.2667 1.256 31.8907 3.272C34.5467 5.288 36.3387 7.768 37.2667 10.712L30.9307 12.968C30.4187 11.208 29.3787 9.688 27.8107 8.408C26.2747 7.096 24.2427 6.44 21.7147 6.44C18.8347 6.44 16.3227 7.432 14.1787 9.416C12.0667 11.4 11.0107 14.264 11.0107 18.008C11.0107 21.688 12.0347 24.552 14.0827 26.6C16.1627 28.648 18.7227 29.672 21.7627 29.672C24.5787 29.672 26.7387 28.968 28.2427 27.56C29.7467 26.12 30.6267 24.616 30.8827 23.048H20.1307V17.288H37.1227V35ZM46.7827 20.504H57.3427C57.2787 19.192 56.7987 18.088 55.9027 17.192C55.0387 16.296 53.7587 15.848 52.0627 15.848C50.5267 15.848 49.2787 16.328 48.3187 17.288C47.3587 18.248 46.8467 19.32 46.7827 20.504ZM57.9667 26.648L63.2947 28.232C62.6547 30.408 61.3907 32.2 59.5027 33.608C57.6467 35.016 55.3267 35.72 52.5427 35.72C49.1507 35.72 46.2707 34.584 43.9027 32.312C41.5347 30.008 40.3507 26.936 40.3507 23.096C40.3507 19.448 41.5027 16.472 43.8067 14.168C46.1107 11.832 48.8307 10.664 51.9667 10.664C55.6147 10.664 58.4627 11.752 60.5107 13.928C62.5907 16.104 63.6307 19.096 63.6307 22.904C63.6307 23.16 63.6147 23.448 63.5827 23.768C63.5827 24.088 63.5827 24.344 63.5827 24.536L63.5347 24.872H46.6387C46.7027 26.408 47.3107 27.688 48.4627 28.712C49.6147 29.736 50.9907 30.248 52.5907 30.248C55.3107 30.248 57.1027 29.048 57.9667 26.648ZM75.33 4.328V11.384H80.082V17.048H75.33V26.936C75.33 27.928 75.554 28.632 76.002 29.048C76.45 29.464 77.154 29.672 78.114 29.672C78.978 29.672 79.634 29.608 80.082 29.48V34.76C79.154 35.144 77.954 35.336 76.482 35.336C74.178 35.336 72.354 34.696 71.01 33.416C69.666 32.104 68.994 30.312 68.994 28.04V17.048H64.722V11.384H65.922C67.106 11.384 68.002 11.048 68.61 10.376C69.25 9.672 69.57 8.76 69.57 7.64V4.328H75.33ZM118.2 9.08L112.248 10.904C112.024 9.688 111.416 8.584 110.424 7.592C109.432 6.6 107.976 6.104 106.056 6.104C104.488 6.104 103.208 6.536 102.216 7.4C101.224 8.232 100.728 9.24 100.728 10.424C100.728 12.504 101.96 13.784 104.424 14.264L109.176 15.176C112.184 15.752 114.52 16.952 116.184 18.776C117.848 20.6 118.68 22.744 118.68 25.208C118.68 28.024 117.56 30.488 115.32 32.6C113.112 34.68 110.136 35.72 106.392 35.72C104.248 35.72 102.312 35.4 100.584 34.76C98.8556 34.12 97.4636 33.272 96.4076 32.216C95.3516 31.128 94.5196 29.992 93.9116 28.808C93.3356 27.592 92.9836 26.344 92.8556 25.064L98.9996 23.432C99.1596 25.256 99.8636 26.776 101.112 27.992C102.392 29.208 104.168 29.816 106.44 29.816C108.168 29.816 109.512 29.432 110.472 28.664C111.464 27.896 111.96 26.888 111.96 25.64C111.96 24.648 111.592 23.8 110.856 23.096C110.152 22.36 109.144 21.864 107.832 21.608L103.08 20.648C100.328 20.072 98.1516 18.936 96.5516 17.24C94.9516 15.544 94.1516 13.432 94.1516 10.904C94.1516 7.896 95.3036 5.368 97.6076 3.32C99.9436 1.272 102.744 0.247998 106.008 0.247998C107.96 0.247998 109.704 0.519999 111.24 1.064C112.776 1.608 114.008 2.344 114.936 3.272C115.864 4.168 116.584 5.096 117.096 6.056C117.608 7.016 117.976 8.024 118.2 9.08ZM130.699 4.328V11.384H135.451V17.048H130.699V26.936C130.699 27.928 130.923 28.632 131.371 29.048C131.819 29.464 132.523 29.672 133.483 29.672C134.347 29.672 135.003 29.608 135.451 29.48V34.76C134.523 35.144 133.323 35.336 131.851 35.336C129.547 35.336 127.723 34.696 126.379 33.416C125.035 32.104 124.363 30.312 124.363 28.04V17.048H120.091V11.384H121.291C122.475 11.384 123.371 11.048 123.979 10.376C124.619 9.672 124.939 8.76 124.939 7.64V4.328H130.699ZM138.374 28.568C138.374 26.552 139.03 24.936 140.342 23.72C141.654 22.504 143.35 21.736 145.43 21.416L151.238 20.552C152.422 20.392 153.014 19.832 153.014 18.872C153.014 17.976 152.662 17.24 151.958 16.664C151.286 16.088 150.31 15.8 149.03 15.8C147.686 15.8 146.614 16.168 145.814 16.904C145.046 17.64 144.614 18.552 144.518 19.64L138.854 18.44C139.078 16.392 140.086 14.584 141.878 13.016C143.67 11.448 146.038 10.664 148.982 10.664C152.502 10.664 155.094 11.512 156.758 13.208C158.422 14.872 159.254 17.016 159.254 19.64V31.256C159.254 32.664 159.35 33.912 159.542 35H153.686C153.526 34.296 153.446 33.352 153.446 32.168C151.942 34.504 149.622 35.672 146.486 35.672C144.054 35.672 142.086 34.968 140.582 33.56C139.11 32.152 138.374 30.488 138.374 28.568ZM147.83 30.92C149.334 30.92 150.566 30.504 151.526 29.672C152.518 28.808 153.014 27.4 153.014 25.448V24.392L147.686 25.208C145.734 25.496 144.758 26.488 144.758 28.184C144.758 28.952 145.03 29.608 145.574 30.152C146.118 30.664 146.87 30.92 147.83 30.92ZM178.889 11.288V17.72C178.249 17.592 177.609 17.528 176.969 17.528C175.145 17.528 173.673 18.056 172.553 19.112C171.433 20.136 170.873 21.832 170.873 24.2V35H164.489V11.384H170.681V14.888C171.833 12.424 174.073 11.192 177.401 11.192C177.753 11.192 178.249 11.224 178.889 11.288ZM190.989 4.328V11.384H195.741V17.048H190.989V26.936C190.989 27.928 191.213 28.632 191.661 29.048C192.109 29.464 192.813 29.672 193.773 29.672C194.637 29.672 195.293 29.608 195.741 29.48V34.76C194.813 35.144 193.613 35.336 192.141 35.336C189.837 35.336 188.013 34.696 186.669 33.416C185.325 32.104 184.653 30.312 184.653 28.04V17.048H180.381V11.384H181.581C182.765 11.384 183.661 11.048 184.269 10.376C184.909 9.672 185.229 8.76 185.229 7.64V4.328H190.989ZM204.386 20.504H214.946C214.882 19.192 214.402 18.088 213.506 17.192C212.642 16.296 211.362 15.848 209.666 15.848C208.13 15.848 206.882 16.328 205.922 17.288C204.962 18.248 204.45 19.32 204.386 20.504ZM215.57 26.648L220.898 28.232C220.258 30.408 218.994 32.2 217.106 33.608C215.25 35.016 212.93 35.72 210.146 35.72C206.754 35.72 203.874 34.584 201.506 32.312C199.138 30.008 197.954 26.936 197.954 23.096C197.954 19.448 199.106 16.472 201.41 14.168C203.714 11.832 206.434 10.664 209.57 10.664C213.218 10.664 216.066 11.752 218.114 13.928C220.194 16.104 221.234 19.096 221.234 22.904C221.234 23.16 221.218 23.448 221.186 23.768C221.186 24.088 221.186 24.344 221.186 24.536L221.138 24.872H204.242C204.306 26.408 204.914 27.688 206.066 28.712C207.218 29.736 208.594 30.248 210.194 30.248C212.914 30.248 214.706 29.048 215.57 26.648ZM247.573 0.247998V30.728C247.573 32.296 247.637 33.72 247.765 35H241.669C241.509 34.2 241.429 33.288 241.429 32.264C240.885 33.256 240.021 34.056 238.837 34.664C237.685 35.272 236.341 35.576 234.805 35.576C231.445 35.576 228.677 34.408 226.501 32.072C224.357 29.704 223.285 26.728 223.285 23.144C223.285 19.656 224.341 16.728 226.453 14.36C228.597 11.992 231.317 10.808 234.613 10.808C238.005 10.808 240.229 11.784 241.285 13.736V0.247998H247.573ZM229.717 23.144C229.717 25.224 230.261 26.872 231.349 28.088C232.437 29.272 233.845 29.864 235.573 29.864C237.269 29.864 238.661 29.256 239.749 28.04C240.837 26.824 241.381 25.176 241.381 23.096C241.381 21.048 240.837 19.448 239.749 18.296C238.661 17.112 237.269 16.52 235.573 16.52C233.877 16.52 232.469 17.112 231.349 18.296C230.261 19.48 229.717 21.096 229.717 23.144ZM272.406 0.967998L270.87 24.632H266.214L264.678 0.967998H272.406ZM265.878 34.28C265.142 33.544 264.774 32.648 264.774 31.592C264.774 30.536 265.142 29.64 265.878 28.904C266.614 28.136 267.494 27.752 268.518 27.752C269.574 27.752 270.47 28.136 271.206 28.904C271.974 29.64 272.358 30.536 272.358 31.592C272.358 32.648 271.974 33.544 271.206 34.28C270.47 35.016 269.574 35.384 268.518 35.384C267.494 35.384 266.614 35.016 265.878 34.28Z" fill="white"/>
</g>
<defs>
<filter id="filter0_di_70_676" x="0.290527" y="0.248047" width="276.115" height="43.4717" filterUnits="userSpaceOnUse" color-interpolation-filters="sRGB">
<feFlood flood-opacity="0" result="BackgroundImageFix"/>
<feColorMatrix in="SourceAlpha" type="matrix" values="0 0 0 0 0 0 0 0 0 0 0 0 0 0 0 0 0 0 127 0" result="hardAlpha"/>
<feOffset dy="4"/>
<feGaussianBlur stdDeviation="2"/>
<feComposite in2="hardAlpha" operator="out"/>
<feColorMatrix type="matrix" values="0 0 0 0 0 0 0 0 0 0 0 0 0 0 0 0 0 0 0.25 0"/>
<feBlend mode="normal" in2="BackgroundImageFix" result="effect1_dropShadow_70_676"/>
<feBlend mode="normal" in="SourceGraphic" in2="effect1_dropShadow_70_676" result="shape"/>
<feColorMatrix in="SourceAlpha" type="matrix" values="0 0 0 0 0 0 0 0 0 0 0 0 0 0 0 0 0 0 127 0" result="hardAlpha"/>
<feOffset dy="4"/>
<feGaussianBlur stdDeviation="2"/>
<feComposite in2="hardAlpha" operator="arithmetic" k2="-1" k3="1"/>
<feColorMatrix type="matrix" values="0 0 0 0 0 0 0 0 0 0 0 0 0 0 0 0 0 0 0.25 0"/>
<feBlend mode="normal" in2="shape" result="effect2_innerShadow_70_676"/>
</filter>
</defs>
</svg>
