<svg width="22" height="22" viewBox="0 0 22 22" fill="none" xmlns="http://www.w3.org/2000/svg">
<g clip-path="url(#clip0_177_3088)">
<path d="M21.9839 13.2275C21.9681 13.1785 21.9407 13.134 21.9042 13.0978C21.8676 13.0615 21.8229 13.0345 21.7738 13.0191C21.7459 13.0101 18.9344 12.0991 17.5968 9.35172C17.1499 8.43434 16.8526 7.06148 16.7125 5.27227C16.6038 3.83954 15.9584 2.50061 14.9053 1.52315C13.8521 0.545695 12.4689 0.0017294 11.032 0L10.968 0C9.53115 0.00182158 8.1479 0.545807 7.09471 1.52324C6.04153 2.50067 5.39599 3.83954 5.28711 5.27227C5.14746 7.06148 4.85012 8.43434 4.40324 9.35172C3.06563 12.0991 0.254182 13.0101 0.226252 13.0195C0.177091 13.0349 0.132324 13.0618 0.0957002 13.098C0.0590765 13.1342 0.0316631 13.1786 0.0157569 13.2276C-0.000149422 13.2766 -0.00408534 13.3287 0.00427885 13.3795C0.012643 13.4303 0.0330637 13.4784 0.0638301 13.5197L0.224533 13.7345C0.500823 14.1046 0.880084 14.3849 1.31488 14.5405C1.74967 14.6961 2.22069 14.7201 2.66902 14.6094C2.63686 15.143 2.79782 15.6704 3.12248 16.0951C3.44715 16.5198 3.91382 16.8134 4.43719 16.9224C6.47477 17.3439 9.2325 17.5897 10.9998 16.4403C11.9524 17.0586 13.1912 17.2734 14.4519 17.2734C15.53 17.2734 16.6231 17.1162 17.5629 16.922C18.0862 16.8132 18.5529 16.5196 18.8775 16.0949C19.2021 15.6703 19.3629 15.1429 19.3306 14.6094C19.779 14.72 20.2501 14.6961 20.6849 14.5405C21.1198 14.3849 21.4991 14.1046 21.7755 13.7345L21.9362 13.5197C21.9669 13.4783 21.9873 13.4302 21.9956 13.3794C22.0039 13.3286 21.9999 13.2765 21.9839 13.2275Z" fill="#5E83FE"/>
<path d="M21.9007 13.5668L21.9364 13.5191C21.967 13.4778 21.9872 13.4298 21.9955 13.379C22.0037 13.3283 21.9998 13.2763 21.9839 13.2274C21.968 13.1786 21.9407 13.1342 21.9041 13.098C21.8676 13.0618 21.823 13.0349 21.774 13.0194C21.7559 13.0138 20.5687 12.6288 19.3716 11.6113C20.2258 12.6211 21.2334 13.2368 21.9007 13.5668Z" fill="#4F4DC1"/>
<path d="M0.87508 14.0864C0.891009 14.0375 0.918437 13.993 0.95507 13.9569C0.991702 13.9207 1.03647 13.8938 1.08563 13.8785C1.11356 13.8695 3.925 12.9585 5.26262 10.2111C5.70949 9.29371 6.00684 7.92086 6.14649 6.13164C6.25536 4.69891 6.9009 3.36004 7.95409 2.38261C9.00728 1.40518 10.3905 0.861199 11.8274 0.859378H11.8914C13.1906 0.857809 14.451 1.30274 15.4613 2.11965C15.2895 1.90743 15.1028 1.70769 14.9027 1.52196C13.8518 0.542608 12.4685 -0.00134853 11.032 2.51069e-06H10.968C9.53115 0.0018241 8.1479 0.545809 7.09472 1.52324C6.04153 2.50067 5.39599 3.83954 5.28711 5.27227C5.14746 7.06149 4.85012 8.43434 4.40324 9.35172C3.06563 12.0991 0.254182 13.0101 0.226252 13.0195C0.177091 13.0349 0.132324 13.0618 0.0957003 13.098C0.0590765 13.1342 0.0316631 13.1786 0.0157569 13.2276C-0.000149422 13.2766 -0.00408535 13.3287 0.00427885 13.3795C0.012643 13.4303 0.0330637 13.4784 0.0638301 13.5197L0.224533 13.7345C0.407898 13.9813 0.638175 14.1893 0.90215 14.3468C0.879696 14.3077 0.865686 14.2644 0.861023 14.2195C0.856361 14.1747 0.861149 14.1293 0.87508 14.0864Z" fill="#4F4DC1"/>
<path d="M3.52844 15.4688C3.29347 15.5265 3.05099 15.5477 2.80957 15.5315C2.8486 15.6342 2.89499 15.734 2.94836 15.8301C3.14977 16.1899 3.44732 16.4866 3.80773 16.6869C3.60041 16.3158 3.5035 15.8931 3.52844 15.4688Z" fill="#4F4DC1"/>
<path d="M20.4531 9.81838C19.4464 9.81838 18.6274 8.83869 18.6274 7.63428C18.6274 7.54881 18.5934 7.46684 18.533 7.4064C18.4726 7.34596 18.3906 7.31201 18.3051 7.31201C18.2196 7.31201 18.1377 7.34596 18.0772 7.4064C18.0168 7.46684 17.9829 7.54881 17.9829 7.63428C17.9829 8.8374 17.1634 9.81838 16.1562 9.81838C16.0708 9.81838 15.9888 9.85233 15.9284 9.91277C15.8679 9.97321 15.834 10.0552 15.834 10.1406C15.834 10.2261 15.8679 10.3081 15.9284 10.3685C15.9888 10.429 16.0708 10.4629 16.1562 10.4629C17.1634 10.4629 17.9829 11.4426 17.9829 12.647C17.9829 12.7325 18.0168 12.8145 18.0772 12.8749C18.1377 12.9353 18.2196 12.9693 18.3051 12.9693C18.3906 12.9693 18.4726 12.9353 18.533 12.8749C18.5934 12.8145 18.6274 12.7325 18.6274 12.647C18.6274 11.4439 19.4464 10.4629 20.4531 10.4629C20.5386 10.4629 20.6206 10.429 20.681 10.3685C20.7414 10.3081 20.7754 10.2261 20.7754 10.1406C20.7754 10.0552 20.7414 9.97321 20.681 9.91277C20.6206 9.85233 20.5386 9.81838 20.4531 9.81838Z" fill="#FCBB4B"/>
<path d="M17.5264 11.2056C17.8277 11.6254 17.9876 12.1304 17.9827 12.6472C17.9826 12.6985 17.9947 12.749 18.0181 12.7947C18.0415 12.8403 18.0755 12.8797 18.1172 12.9095C18.1589 12.9393 18.2072 12.9587 18.2579 12.9661C18.3087 12.9734 18.3605 12.9685 18.4089 12.9518C18.3737 12.211 18.0287 11.5678 17.5264 11.2056Z" fill="#F3A949"/>
<path d="M20.7588 10.2423C20.7751 10.1939 20.7795 10.1423 20.7719 10.0918C20.7642 10.0413 20.7447 9.9934 20.7148 9.95197C20.685 9.91053 20.6457 9.87679 20.6002 9.85354C20.5548 9.83028 20.5044 9.81819 20.4533 9.81824C20.1148 9.81622 19.7856 9.70685 19.5132 9.50586C19.8226 9.92566 20.2638 10.2024 20.7588 10.2423Z" fill="#F3A949"/>
<path d="M16.5859 10.2481C17.5931 10.2481 18.4125 9.26838 18.4125 8.06396C18.4125 7.99679 18.4334 7.93127 18.4725 7.87663C18.5116 7.82199 18.5668 7.78096 18.6304 7.75932C18.6282 7.71635 18.6274 7.67596 18.6274 7.63428C18.6274 7.54881 18.5934 7.46684 18.533 7.4064C18.4726 7.34596 18.3906 7.31201 18.3051 7.31201C18.2196 7.31201 18.1377 7.34596 18.0772 7.4064C18.0168 7.46684 17.9829 7.54881 17.9829 7.63428C17.9829 8.8374 17.1634 9.81838 16.1562 9.81838C16.0708 9.81838 15.9888 9.85233 15.9284 9.91277C15.8679 9.97321 15.834 10.0552 15.834 10.1406C15.834 10.2261 15.8679 10.3081 15.9284 10.3685C15.9888 10.429 16.0708 10.4629 16.1562 10.4629C16.1992 10.4629 16.2392 10.4651 16.2804 10.4685C16.3018 10.4044 16.3428 10.3486 16.3976 10.309C16.4524 10.2694 16.5183 10.2481 16.5859 10.2481Z" fill="#F3A949"/>
<path d="M3.75977 3.15818C2.98977 3.15818 2.36328 2.40322 2.36328 1.4751C2.36328 1.38963 2.32933 1.30766 2.26889 1.24722C2.20846 1.18678 2.12649 1.15283 2.04102 1.15283C1.95555 1.15283 1.87358 1.18678 1.81314 1.24722C1.7527 1.30766 1.71875 1.38963 1.71875 1.4751C1.71875 2.40322 1.09227 3.15818 0.322266 3.15818C0.236795 3.15818 0.154826 3.19214 0.0943894 3.25257C0.0339529 3.31301 0 3.39498 0 3.48045C0 3.56592 0.0339529 3.64789 0.0943894 3.70833C0.154826 3.76876 0.236795 3.80271 0.322266 3.80271C1.09227 3.80271 1.71875 4.55768 1.71875 5.4858C1.71875 5.57127 1.7527 5.65324 1.81314 5.71368C1.87358 5.77411 1.95555 5.80807 2.04102 5.80807C2.12649 5.80807 2.20846 5.77411 2.26889 5.71368C2.32933 5.65324 2.36328 5.57127 2.36328 5.4858C2.36328 4.55768 2.98977 3.80271 3.75977 3.80271C3.84524 3.80271 3.92721 3.76876 3.98764 3.70833C4.04808 3.64789 4.08203 3.56592 4.08203 3.48045C4.08203 3.39498 4.04808 3.31301 3.98764 3.25257C3.92721 3.19214 3.84524 3.15818 3.75977 3.15818Z" fill="#FCBB4B"/>
<path d="M4.0659 3.5808C4.08189 3.53242 4.08616 3.48093 4.07836 3.43058C4.07056 3.38022 4.05092 3.33244 4.02105 3.29116C3.99118 3.24988 3.95194 3.21628 3.90655 3.19313C3.86115 3.16998 3.81092 3.15793 3.75996 3.15799C3.52622 3.15687 3.29783 3.08791 3.10254 2.95947C3.33457 3.3058 3.67746 3.53955 4.0659 3.5808Z" fill="#F3A949"/>
<path d="M1.40967 4.43115C1.61427 4.74453 1.72175 5.11136 1.71861 5.48561C1.71861 5.57108 1.75257 5.65305 1.813 5.71348C1.87344 5.77392 1.95541 5.80787 2.04088 5.80787C2.07609 5.80772 2.11106 5.80192 2.14443 5.79068C2.10834 5.20201 1.82002 4.69627 1.40967 4.43115Z" fill="#F3A949"/>
<path d="M0.751953 3.58787C1.52195 3.58787 2.14844 2.83291 2.14844 1.90479C2.14849 1.83741 2.16966 1.77174 2.20896 1.71702C2.24827 1.66229 2.30374 1.62127 2.36758 1.59971C2.365 1.55674 2.36328 1.51721 2.36328 1.4751C2.36328 1.38963 2.32933 1.30766 2.26889 1.24722C2.20846 1.18678 2.12649 1.15283 2.04102 1.15283C1.95555 1.15283 1.87358 1.18678 1.81314 1.24722C1.7527 1.30766 1.71875 1.38963 1.71875 1.4751C1.71875 2.40322 1.09227 3.15818 0.322266 3.15818C0.236795 3.15818 0.154826 3.19214 0.0943894 3.25257C0.0339529 3.31301 0 3.39498 0 3.48045C0 3.56592 0.0339529 3.64789 0.0943894 3.70833C0.154826 3.76876 0.236795 3.80271 0.322266 3.80271C0.363608 3.80284 0.404914 3.80513 0.446016 3.80959C0.467125 3.7451 0.508078 3.68893 0.563024 3.64911C0.617969 3.60929 0.684096 3.58786 0.751953 3.58787Z" fill="#F3A949"/>
<path d="M15.7854 14.8951L13.3121 14.062C12.6315 13.1433 13.0277 10.9961 13.2438 10.2283C13.2574 10.1803 13.2596 10.1299 13.2504 10.081C13.2412 10.032 13.2207 9.98587 13.1907 9.94615C13.1606 9.90643 13.1218 9.87422 13.0772 9.85204C13.0325 9.82987 12.9834 9.81834 12.9336 9.81836H9.06641C9.01659 9.81834 8.96745 9.82987 8.92285 9.85204C8.87824 9.87422 8.83938 9.90643 8.80932 9.94615C8.77926 9.98587 8.75881 10.032 8.74959 10.081C8.74037 10.1299 8.74262 10.1803 8.75617 10.2283C8.97102 10.9961 9.36848 13.1433 8.68785 14.062L6.21457 14.8951C5.32372 15.1946 4.54943 15.7664 4.00103 16.5297C3.45263 17.2929 3.15782 18.2092 3.1582 19.149V21.6777C3.1582 21.7632 3.19216 21.8452 3.25259 21.9056C3.31303 21.966 3.395 22 3.48047 22H18.5195C18.605 22 18.687 21.966 18.7474 21.9056C18.8078 21.8452 18.8418 21.7632 18.8418 21.6777V19.1499C18.8424 18.2099 18.5476 17.2934 17.9992 16.53C17.4508 15.7666 16.6764 15.1947 15.7854 14.8951Z" fill="#FFCDB2"/>
<path d="M14.1715 14.4914L16.6447 15.3246C16.6903 15.3401 16.7354 15.3564 16.7801 15.3731C16.4695 15.1734 16.1354 15.0127 15.7854 14.8949L14.061 14.314C14.0934 14.3758 14.1303 14.4351 14.1715 14.4914Z" fill="#F8AC86"/>
<path d="M4.01758 19.5796C4.01719 18.6397 4.31201 17.7235 4.86041 16.9602C5.40881 16.1969 6.18309 15.6252 7.07395 15.3257L9.54723 14.4925C10.2279 13.5738 9.83168 11.4267 9.61555 10.6588C9.60184 10.6108 9.59946 10.5603 9.60861 10.5113C9.61776 10.4622 9.63817 10.4159 9.66825 10.3761C9.69833 10.3363 9.73725 10.304 9.78194 10.2817C9.82663 10.2595 9.87587 10.248 9.92578 10.248H13.2382L13.2438 10.2283C13.2574 10.1803 13.2596 10.1299 13.2504 10.081C13.2412 10.032 13.2207 9.98587 13.1907 9.94615C13.1606 9.90643 13.1218 9.87422 13.0772 9.85204C13.0325 9.82987 12.9834 9.81834 12.9336 9.81836H9.06641C9.01659 9.81834 8.96745 9.82987 8.92285 9.85204C8.87824 9.87422 8.83938 9.90643 8.80932 9.94615C8.77926 9.98587 8.75881 10.032 8.74959 10.081C8.74037 10.1299 8.74262 10.1803 8.75617 10.2283C8.97102 10.9961 9.36848 13.1433 8.68785 14.062L6.21457 14.8951C5.32372 15.1946 4.54943 15.7664 4.00103 16.5297C3.45263 17.2929 3.15782 18.2092 3.1582 19.149V21.6777C3.1582 21.7632 3.19216 21.8452 3.25259 21.9056C3.31303 21.966 3.395 22 3.48047 22H4.01758V19.5796Z" fill="#F8AC86"/>
<path d="M16.5043 18.418L16.2091 17.8723C16.1069 17.6832 16.0736 17.4645 16.115 17.2536L16.5262 15.1679C16.5627 14.9855 16.5302 14.796 16.4349 14.6363C16.3396 14.4765 16.1884 14.3579 16.0106 14.3033L14.9961 13.9909C14.8117 13.9345 14.6127 13.951 14.4402 14.0371C14.2676 14.1231 14.1347 14.2721 14.0688 14.4533L13.2043 16.8346L12.2341 17.3674C11.8569 17.5759 11.4331 17.6852 11.0021 17.6852C10.5712 17.6852 10.1474 17.5759 9.77023 17.3674L8.8 16.8346L7.93547 14.4533C7.86958 14.2721 7.73665 14.1231 7.5641 14.0371C7.39156 13.951 7.19257 13.9345 7.0082 13.9909L5.99328 14.302C5.81546 14.3566 5.66423 14.4752 5.56896 14.635C5.47368 14.7947 5.44114 14.9842 5.47766 15.1666L5.88672 17.2536C5.92808 17.4645 5.89481 17.6832 5.79262 17.8723L5.49742 18.418C5.37277 18.6469 5.30719 18.9033 5.30664 19.164V21.9999H16.6934V19.164C16.6931 18.9035 16.6281 18.6472 16.5043 18.418Z" fill="#EF6D78"/>
<path d="M6.35508 18.4183L6.65027 17.8726C6.75247 17.6835 6.78574 17.4647 6.74438 17.2538L6.33316 15.1681C6.29665 14.9857 6.32919 14.7963 6.42446 14.6365C6.51974 14.4768 6.67096 14.3581 6.84879 14.3036L7.61492 14.069C7.52433 14.0138 7.42307 13.9785 7.31783 13.9653C7.21258 13.9521 7.10574 13.9614 7.00434 13.9925L5.98941 14.3036C5.81159 14.3581 5.66037 14.4768 5.56509 14.6365C5.46981 14.7963 5.43727 14.9857 5.47379 15.1681L5.88672 17.2538C5.92808 17.4647 5.89481 17.6835 5.79262 17.8726L5.49742 18.4183C5.37277 18.6472 5.30719 18.9036 5.30664 19.1642V22.0001H6.16602V19.1642C6.16604 18.9037 6.23102 18.6473 6.35508 18.4183Z" fill="#D74962"/>
<path d="M13.0913 17.3674L14.0615 16.8346L14.9261 14.4533C14.9844 14.292 15.0962 14.1556 15.2427 14.0666L14.9961 13.9909C14.8117 13.9345 14.6127 13.951 14.4402 14.0371C14.2676 14.1231 14.1347 14.2721 14.0688 14.4533L13.2043 16.8346L12.2341 17.3674C11.9835 17.5053 11.7116 17.6003 11.4297 17.6484C11.9994 17.746 12.5853 17.6469 13.0913 17.3674Z" fill="#D74962"/>
<path d="M10.9998 20.0039C10.2357 20.0042 9.47707 19.8761 8.75553 19.6249L8.43025 19.5114C8.3895 19.4981 8.35182 19.4768 8.3194 19.4488C8.28699 19.4207 8.2605 19.3865 8.24147 19.3481C8.22245 19.3097 8.21129 19.2678 8.20863 19.2251C8.20597 19.1823 8.21187 19.1394 8.22599 19.0989C8.24011 19.0585 8.26217 19.0212 8.29086 18.9894C8.31955 18.9575 8.35431 18.9317 8.3931 18.9135C8.43189 18.8952 8.47393 18.8849 8.51675 18.8831C8.55958 18.8813 8.60234 18.8881 8.64252 18.903L8.96779 19.0164C10.2839 19.4736 11.7157 19.4736 13.0318 19.0164L13.357 18.903C13.3972 18.8881 13.44 18.8813 13.4828 18.8831C13.5256 18.8849 13.5677 18.8952 13.6065 18.9135C13.6453 18.9317 13.68 18.9575 13.7087 18.9894C13.7374 19.0212 13.7595 19.0585 13.7736 19.0989C13.7877 19.1394 13.7936 19.1823 13.7909 19.2251C13.7883 19.2678 13.7771 19.3097 13.7581 19.3481C13.7391 19.3865 13.7126 19.4207 13.6802 19.4488C13.6477 19.4768 13.6101 19.4981 13.5693 19.5114L13.244 19.6249C12.5225 19.8761 11.7638 20.0042 10.9998 20.0039Z" fill="#DBE9EE"/>
<path d="M14.6689 6.66934C12.9617 6.66934 11.9833 5.97152 11.4501 5.34805C11.264 5.12961 11.1039 4.89024 10.9732 4.63477C10.807 4.95948 10.5933 5.25766 10.3394 5.51949C9.80956 6.06305 8.8621 6.66934 7.27354 6.66934C7.23057 6.66934 7.18975 6.66934 7.14722 6.66934C7.13518 6.70373 7.12893 6.73989 7.12874 6.77633V8.74988C7.12831 8.75818 7.12831 8.7665 7.12874 8.77481C7.32511 11.2919 9.5178 12.3898 10.4515 12.7451C10.7868 12.8723 11.157 12.8723 11.4922 12.7451C12.4255 12.3898 14.6182 11.2923 14.815 8.77481C14.8154 8.7665 14.8154 8.75818 14.815 8.74988V6.77461C14.8148 6.73831 14.8086 6.70229 14.7965 6.66805L14.6689 6.66934Z" fill="#FFCDB2"/>
<path d="M11.0599 4.79418C11.029 4.74047 10.9998 4.68719 10.974 4.63477C10.8946 4.78921 10.8046 4.93796 10.7046 5.07992C10.8291 4.99248 10.9478 4.89704 11.0599 4.79418Z" fill="#F8AC86"/>
<path d="M12.3531 11.8839C12.0178 12.0111 11.6476 12.0111 11.3124 11.8839C10.3786 11.5286 8.18595 10.4307 7.98958 7.91363C7.98915 7.90533 7.98915 7.89701 7.98958 7.88871V6.625C7.75254 6.65444 7.51387 6.66879 7.27501 6.66797C7.23204 6.66797 7.19122 6.66797 7.14868 6.66797C7.13664 6.70236 7.1304 6.73852 7.1302 6.77496V8.74852C7.12978 8.75682 7.12978 8.76514 7.1302 8.77344C7.32657 11.2905 9.51927 12.3884 10.453 12.7437C10.7882 12.8709 11.1584 12.8709 11.4937 12.7437C12.0901 12.5169 13.2008 11.9866 13.976 10.9764C13.4826 11.3571 12.9357 11.6629 12.3531 11.8839Z" fill="#F8AC86"/>
<path d="M15.5906 6.71842C15.5868 6.67628 15.5747 6.63531 15.555 6.59786C15.5354 6.5604 15.5085 6.5272 15.476 6.50014C15.4434 6.47308 15.4059 6.4527 15.3655 6.44016C15.3251 6.42763 15.2826 6.42319 15.2404 6.42709C11.7956 6.74549 11.3097 4.17939 11.2908 4.06982C11.2777 3.99347 11.2376 3.92437 11.1778 3.87516C11.118 3.82595 11.0425 3.79993 10.9651 3.80186C10.8876 3.80379 10.8135 3.83354 10.7562 3.88567C10.6989 3.9378 10.6623 4.00882 10.6531 4.08572C10.6531 4.09131 10.6501 4.09646 10.6488 4.10205C10.52 4.62796 10.254 5.11028 9.87795 5.49982C9.15307 6.24318 8.08572 6.55556 6.706 6.42795C6.62087 6.42008 6.5361 6.44636 6.47035 6.50099C6.40459 6.55563 6.36323 6.63415 6.35537 6.71928C6.34751 6.8044 6.37378 6.88917 6.42842 6.95492C6.48305 7.02068 6.56157 7.06204 6.6467 7.0699C6.86584 7.0901 7.07639 7.09955 7.27361 7.09955C8.86346 7.09955 9.80877 6.49326 10.3394 5.9497C10.5934 5.68787 10.807 5.3897 10.9732 5.06498C11.104 5.32045 11.264 5.55983 11.4502 5.77826C11.9834 6.40174 12.9618 7.09955 14.669 7.09955C14.8688 7.09955 15.0793 7.0901 15.2997 7.0699C15.3419 7.06597 15.3829 7.05375 15.4204 7.03395C15.4579 7.01414 15.4911 6.98715 15.5181 6.9545C15.5451 6.92185 15.5654 6.88419 15.5779 6.84368C15.5903 6.80317 15.5947 6.7606 15.5906 6.71842Z" fill="#4F4DC1"/>
</g>
<defs>
<clipPath id="clip0_177_3088">
<rect width="22" height="22" fill="white"/>
</clipPath>
</defs>
</svg>
